<?xml version="1.0" encoding="UTF-8"?>
<svg style="background: darkblue" width="1214px" height="866px" viewBox="0 0 1214 866" version="1.1" xmlns="http://www.w3.org/2000/svg" xmlns:xlink="http://www.w3.org/1999/xlink">
    <!-- Generator: Sketch 51.2 (57519) - http://www.bohemiancoding.com/sketch -->
    <title>common runtimes</title>
    <desc>Created with Sketch.</desc>
    <defs></defs>
    <g id="common-runtimes" stroke="none" stroke-width="1" fill="none" fill-rule="evenodd">
        <rect id="Rectangle-2" fill="#75C7FF" fill-rule="nonzero" opacity="0.102734375" x="101" y="221" width="220" height="220" rx="10"></rect>
        <rect id="Rectangle-2-Copy-4" fill="#75C7FF" fill-rule="nonzero" opacity="0.102734375" x="233" y="554" width="220" height="220" rx="10"></rect>
        <rect id="Rectangle-2-Copy" fill="#75C7FF" fill-rule="nonzero" opacity="0.102734375" x="365" y="221" width="220" height="220" rx="10"></rect>
        <rect id="Rectangle-2-Copy-5" fill="#75C7FF" fill-rule="nonzero" opacity="0.102734375" x="497" y="554" width="220" height="220" rx="10"></rect>
        <path d="M193.710449,197.469727 C191.103665,197.469727 189.006844,196.566253 187.419922,194.759277 C185.833,192.952302 185.039551,190.567723 185.039551,187.605469 C185.039551,184.60936 185.837232,182.216318 187.432617,180.42627 C189.028003,178.636222 191.158678,177.741211 193.824707,177.741211 C196.490736,177.741211 198.621411,178.634106 200.216797,180.419922 C201.812182,182.205738 202.609863,184.588201 202.609863,187.567383 C202.609863,190.605809 201.810067,193.015779 200.210449,194.797363 C198.610832,196.578948 196.444187,197.469727 193.710449,197.469727 Z M187.883301,188.379883 C188.213381,193.111026 190.19383,195.476562 193.824707,195.476562 C197.455585,195.476562 199.436034,193.111026 199.766113,188.379883 L187.883301,188.379883 Z M199.740723,186.500977 C199.359861,181.989886 197.387876,179.734375 193.824707,179.734375 C192.089672,179.734375 190.714361,180.316238 189.69873,181.47998 C188.6831,182.643723 188.086427,184.317372 187.908691,186.500977 L199.740723,186.500977 Z M211.445801,199.03125 L211.445801,200.757812 C209.617667,199.513666 208.1683,197.82309 207.097656,195.686035 C206.027013,193.54898 205.491699,191.270194 205.491699,188.849609 C205.491699,186.437488 206.027013,184.162934 207.097656,182.025879 C208.1683,179.888824 209.617667,178.198248 211.445801,176.954102 L211.445801,178.680664 C210.201654,180.034838 209.315107,181.490552 208.786133,183.047852 C208.257159,184.605151 207.992676,186.539051 207.992676,188.849609 C207.992676,191.168631 208.257159,193.106763 208.786133,194.664062 C209.315107,196.221362 210.201654,197.677077 211.445801,199.03125 Z M216.29541,197 L216.29541,195.121094 L220.053223,195.121094 L220.053223,180.292969 L216.29541,181.232422 L216.29541,179.302734 L222.566895,177.741211 L222.566895,195.121094 L226.324707,195.121094 L226.324707,197 L216.29541,197 Z M229.765137,199.03125 C231.009284,197.677077 231.895831,196.221362 232.424805,194.664062 C232.953779,193.106763 233.218262,191.168631 233.218262,188.849609 C233.218262,186.539051 232.953779,184.605151 232.424805,183.047852 C231.895831,181.490552 231.009284,180.034838 229.765137,178.680664 L229.765137,176.954102 C231.593271,178.198248 233.042638,179.888824 234.113281,182.025879 C235.183925,184.162934 235.719238,186.437488 235.719238,188.849609 C235.719238,191.270194 235.183925,193.54898 234.113281,195.686035 C233.042638,197.82309 231.593271,199.513666 229.765137,200.757812 L229.765137,199.03125 Z" id="ϴ(1)" fill="#FFFFFF"></path>
        <path d="M318.463379,530.469727 C315.856595,530.469727 313.759774,529.566253 312.172852,527.759277 C310.58593,525.952302 309.79248,523.567723 309.79248,520.605469 C309.79248,517.60936 310.590161,515.216318 312.185547,513.42627 C313.780932,511.636222 315.911608,510.741211 318.577637,510.741211 C321.243666,510.741211 323.374341,511.634106 324.969727,513.419922 C326.565112,515.205738 327.362793,517.588201 327.362793,520.567383 C327.362793,523.605809 326.562996,526.015779 324.963379,527.797363 C323.363762,529.578948 321.197117,530.469727 318.463379,530.469727 Z M312.63623,521.379883 C312.96631,526.111026 314.946759,528.476562 318.577637,528.476562 C322.208514,528.476562 324.188963,526.111026 324.519043,521.379883 L312.63623,521.379883 Z M324.493652,519.500977 C324.112791,514.989886 322.140806,512.734375 318.577637,512.734375 C316.842602,512.734375 315.46729,513.316238 314.45166,514.47998 C313.43603,515.643723 312.839356,517.317372 312.661621,519.500977 L324.493652,519.500977 Z M336.19873,532.03125 L336.19873,533.757812 C334.370596,532.513666 332.921229,530.82309 331.850586,528.686035 C330.779943,526.54898 330.244629,524.270194 330.244629,521.849609 C330.244629,519.437488 330.779943,517.162934 331.850586,515.025879 C332.921229,512.888824 334.370596,511.198248 336.19873,509.954102 L336.19873,511.680664 C334.954584,513.034837 334.068036,514.490552 333.539062,516.047852 C333.010088,517.605151 332.745605,519.539051 332.745605,521.849609 C332.745605,524.168631 333.010088,526.106763 333.539062,527.664062 C334.068036,529.221362 334.954584,530.677077 336.19873,532.03125 Z M339.562988,530 L339.562988,511.210938 L342.178223,511.210938 L351.63623,525.72168 L351.63623,511.210938 L353.921387,511.210938 L353.921387,530 L351.318848,530 L341.848145,515.489258 L341.848145,530 L339.562988,530 Z M365.512207,532.03125 C366.756354,530.677077 367.642901,529.221362 368.171875,527.664062 C368.700849,526.106763 368.965332,524.168631 368.965332,521.849609 C368.965332,519.539051 368.700849,517.605151 368.171875,516.047852 C367.642901,514.490552 366.756354,513.034837 365.512207,511.680664 L365.512207,509.954102 C367.340341,511.198248 368.789708,512.888824 369.860352,515.025879 C370.930995,517.162934 371.466309,519.437488 371.466309,521.849609 C371.466309,524.270194 370.930995,526.54898 369.860352,528.686035 C368.789708,530.82309 367.340341,532.513666 365.512207,533.757812 L365.512207,532.03125 Z" id="ϴ(N-)" fill="#FFFFFF"></path>
        <path d="M584.197168,530.469727 C581.590384,530.469727 579.493563,529.566253 577.906641,527.759277 C576.319719,525.952302 575.52627,523.567723 575.52627,520.605469 C575.52627,517.60936 576.32395,515.216318 577.919336,513.42627 C579.514721,511.636222 581.645397,510.741211 584.311426,510.741211 C586.977455,510.741211 589.10813,511.634106 590.703516,513.419922 C592.298901,515.205738 593.096582,517.588201 593.096582,520.567383 C593.096582,523.605809 592.296785,526.015779 590.697168,527.797363 C589.097551,529.578948 586.930906,530.469727 584.197168,530.469727 Z M578.37002,521.379883 C578.700099,526.111026 580.680548,528.476562 584.311426,528.476562 C587.942303,528.476562 589.922752,526.111026 590.252832,521.379883 L578.37002,521.379883 Z M590.227441,519.500977 C589.84658,514.989886 587.874595,512.734375 584.311426,512.734375 C582.576391,512.734375 581.201079,513.316238 580.185449,514.47998 C579.169819,515.643723 578.573145,517.317372 578.39541,519.500977 L590.227441,519.500977 Z M601.93252,532.03125 L601.93252,533.757812 C600.104385,532.513666 598.655018,530.82309 597.584375,528.686035 C596.513732,526.54898 595.978418,524.270194 595.978418,521.849609 C595.978418,519.437488 596.513732,517.162934 597.584375,515.025879 C598.655018,512.888824 600.104385,511.198248 601.93252,509.954102 L601.93252,511.680664 C600.688373,513.034837 599.801826,514.490552 599.272852,516.047852 C598.743878,517.605151 598.479395,519.539051 598.479395,521.849609 C598.479395,524.168631 598.743878,526.106763 599.272852,527.664062 C599.801826,529.221362 600.688373,530.677077 601.93252,532.03125 Z M605.030176,530 L605.030176,527.803711 C605.758044,526.102531 607.230685,524.249033 609.448145,522.243164 L610.882715,520.960938 C612.727776,519.293611 613.650293,517.639006 613.650293,515.99707 C613.650293,514.947586 613.335029,514.122399 612.704492,513.521484 C612.073955,512.92057 611.208567,512.620117 610.108301,512.620117 C608.804909,512.620117 607.268791,513.123693 605.499902,514.130859 L605.499902,511.921875 C607.167228,511.134762 608.821834,510.741211 610.46377,510.741211 C612.224195,510.741211 613.637592,511.215165 614.704004,512.163086 C615.770415,513.111007 616.303613,514.367831 616.303613,515.933594 C616.303613,517.05925 616.034898,518.057938 615.497461,518.929688 C614.960023,519.801437 613.95922,520.859369 612.49502,522.103516 L611.530176,522.928711 C609.524306,524.629891 608.364813,526.254875 608.05166,527.803711 L616.214746,527.803711 L616.214746,530 L605.030176,530 Z M631.778418,532.03125 C633.022565,530.677077 633.909112,529.221362 634.438086,527.664062 C634.96706,526.106763 635.231543,524.168631 635.231543,521.849609 C635.231543,519.539051 634.96706,517.605151 634.438086,516.047852 C633.909112,514.490552 633.022565,513.034837 631.778418,511.680664 L631.778418,509.954102 C633.606552,511.198248 635.055919,512.888824 636.126562,515.025879 C637.197206,517.162934 637.73252,519.437488 637.73252,521.849609 C637.73252,524.270194 637.197206,526.54898 636.126562,528.686035 C635.055919,530.82309 633.606552,532.513666 631.778418,533.757812 L631.778418,532.03125 Z" id="ϴ(2-)" fill="#FFFFFF"></path>
        <path d="M356.819531,517 L356.819531,515.648438 C357.26745,514.601557 358.173691,513.460944 359.538281,512.226562 L360.421094,511.4375 C361.556516,510.411453 362.124219,509.393234 362.124219,508.382812 C362.124219,507.736976 361.93021,507.229169 361.542187,506.859375 C361.154165,506.489581 360.621618,506.304688 359.944531,506.304688 C359.142444,506.304688 358.197141,506.61458 357.108594,507.234375 L357.108594,505.875 C358.13464,505.390623 359.152859,505.148438 360.163281,505.148438 C361.24662,505.148438 362.116403,505.440101 362.772656,506.023438 C363.428909,506.606774 363.757031,507.380204 363.757031,508.34375 C363.757031,509.036462 363.591668,509.651039 363.260937,510.1875 C362.930207,510.723961 362.314327,511.374996 361.413281,512.140625 L360.819531,512.648438 C359.58515,513.695318 358.871615,514.695308 358.678906,515.648438 L363.702344,515.648438 L363.702344,517 L356.819531,517 Z" id="2" fill="#FFFFFF"></path>
        <polygon id="N" fill="#FFFFFF" points="619.132031 517 619.132031 505.4375 620.741406 505.4375 626.561719 514.367188 626.561719 505.4375 627.967969 505.4375 627.967969 517 626.366406 517 620.538281 508.070312 620.538281 517"></polygon>
        <path d="M431.770285,197.469727 C429.163501,197.469727 427.066679,196.566253 425.479757,194.759277 C423.892835,192.952302 423.099386,190.567723 423.099386,187.605469 C423.099386,184.60936 423.897067,182.216318 425.492453,180.42627 C427.087838,178.636222 429.218513,177.741211 431.884542,177.741211 C434.550571,177.741211 436.681247,178.634106 438.276632,180.419922 C439.872018,182.205738 440.669699,184.588201 440.669699,187.567383 C440.669699,190.605809 439.869902,193.015779 438.270285,194.797363 C436.670667,196.578948 434.504022,197.469727 431.770285,197.469727 Z M425.943136,188.379883 C426.273216,193.111026 428.253665,195.476562 431.884542,195.476562 C435.51542,195.476562 437.495869,193.111026 437.825949,188.379883 L425.943136,188.379883 Z M437.800558,186.500977 C437.419697,181.989886 435.447711,179.734375 431.884542,179.734375 C430.149508,179.734375 428.774196,180.316238 427.758566,181.47998 C426.742936,182.643723 426.146262,184.317372 425.968527,186.500977 L437.800558,186.500977 Z M449.505636,199.03125 L449.505636,200.757812 C447.677502,199.513666 446.228135,197.82309 445.157492,195.686035 C444.086848,193.54898 443.551535,191.270194 443.551535,188.849609 C443.551535,186.437488 444.086848,184.162934 445.157492,182.025879 C446.228135,179.888824 447.677502,178.198248 449.505636,176.954102 L449.505636,178.680664 C448.261489,180.034838 447.374942,181.490552 446.845968,183.047852 C446.316994,184.605151 446.052511,186.539051 446.052511,188.849609 C446.052511,191.168631 446.316994,193.106763 446.845968,194.664062 C447.374942,196.221362 448.261489,197.677077 449.505636,199.03125 Z M452.946066,197 L452.946066,176.954102 L455.447042,176.954102 L455.447042,197 L452.946066,197 Z M465.857199,197.317383 C463.885184,197.317383 462.310981,196.663581 461.134542,195.355957 C459.958104,194.048333 459.369894,192.298514 459.369894,190.106445 C459.369894,187.888986 459.96022,186.134935 461.14089,184.844238 C462.32156,183.553542 463.923269,182.908203 465.946066,182.908203 C467.968862,182.908203 469.570572,183.553542 470.751242,184.844238 C471.931912,186.134935 472.522238,187.880523 472.522238,190.081055 C472.522238,192.332368 471.929796,194.101231 470.744894,195.387695 C469.559992,196.67416 467.930777,197.317383 465.857199,197.317383 Z M465.895285,195.438477 C468.544386,195.438477 469.868917,193.652687 469.868917,190.081055 C469.868917,186.55174 468.561313,184.787109 465.946066,184.787109 C463.339282,184.787109 462.03591,186.560204 462.03591,190.106445 C462.03591,193.661151 463.322355,195.438477 465.895285,195.438477 Z M476.483175,201.583008 L476.775167,199.412109 C478.22244,200.09766 479.648533,200.44043 481.053488,200.44043 C483.871861,200.44043 485.281027,198.94663 485.281027,195.958984 L485.281027,193.788086 C484.358496,195.717783 482.843537,196.682617 480.736105,196.682617 C479.085706,196.682617 477.77387,196.081712 476.800558,194.879883 C475.827246,193.678054 475.340597,192.057302 475.340597,190.017578 C475.340597,187.918609 475.894953,186.208991 477.003683,184.888672 C478.112412,183.568353 479.546968,182.908203 481.307394,182.908203 C482.847766,182.908203 484.172297,183.534499 485.281027,184.787109 L485.281027,183.212891 L487.794699,183.212891 L487.794699,193.242188 C487.794699,195.400401 487.682558,196.997879 487.458273,198.034668 C487.233988,199.071457 486.812931,199.919919 486.195089,200.580078 C485.103287,201.739589 483.406364,202.319336 481.104269,202.319336 C479.496188,202.319336 477.955839,202.073896 476.483175,201.583008 Z M485.281027,192.226562 L485.281027,186.500977 C484.180761,185.358393 482.983182,184.787109 481.688253,184.787109 C480.537206,184.787109 479.635848,185.248368 478.984152,186.170898 C478.332456,187.093429 478.006613,188.358716 478.006613,189.966797 C478.006613,192.988296 479.068777,194.499023 481.193136,194.499023 C482.640409,194.499023 484.003026,193.741544 485.281027,192.226562 Z M500.794699,197 L500.794699,178.210938 L503.409933,178.210938 L512.867941,192.72168 L512.867941,178.210938 L515.153097,178.210938 L515.153097,197 L512.550558,197 L503.079855,182.489258 L503.079855,197 L500.794699,197 Z M518.517355,199.03125 C519.761502,197.677077 520.648049,196.221362 521.177023,194.664062 C521.705997,193.106763 521.97048,191.168631 521.97048,188.849609 C521.97048,186.539051 521.705997,184.605151 521.177023,183.047852 C520.648049,181.490552 519.761502,180.034838 518.517355,178.680664 L518.517355,176.954102 C520.345489,178.198248 521.794856,179.888824 522.865499,182.025879 C523.936143,184.162934 524.471456,186.437488 524.471456,188.849609 C524.471456,191.270194 523.936143,193.54898 522.865499,195.686035 C521.794856,197.82309 520.345489,199.513666 518.517355,200.757812 L518.517355,199.03125 Z" id="ϴ(log-N)" fill="#FFFFFF"></path>
        <polyline id="Path-2" stroke="#FFFFFF" stroke-width="3" points="130 253 130 410.64724 287.64724 410.64724"></polyline>
        <polyline id="Path-2-Copy-4" stroke="#FFFFFF" stroke-width="3" points="262 586 262 743.64724 419.64724 743.64724"></polyline>
        <polyline id="Path-2-Copy" stroke="#FFFFFF" stroke-width="3" points="394 253 394 410.64724 551.64724 410.64724"></polyline>
        <polyline id="Path-2-Copy-5" stroke="#FFFFFF" stroke-width="3" points="526 586 526 743.64724 683.64724 743.64724"></polyline>
        <path d="M137,386 L285.976642,386" id="Line" stroke="#37C3BE" stroke-width="3" stroke-linecap="round" fill-rule="nonzero"></path>
        <path d="M401,402 C405.602595,378.414547 417.816136,361.414547 437.640625,351 C458.777318,339.896103 496.222657,331.229437 549.976642,325" id="Line-Copy" stroke="#37C3BE" stroke-width="3" stroke-linecap="round" fill-rule="nonzero"></path>
        <rect id="Rectangle-2-Copy-2" fill="#75C7FF" fill-rule="nonzero" opacity="0.102734375" x="629" y="221" width="220" height="220" rx="10"></rect>
        <rect id="Rectangle-2-Copy-6" fill="#75C7FF" fill-rule="nonzero" opacity="0.102734375" x="761" y="554" width="220" height="220" rx="10"></rect>
        <path d="M720.82666,197.469727 C718.219876,197.469727 716.123055,196.566253 714.536133,194.759277 C712.949211,192.952302 712.155762,190.567723 712.155762,187.605469 C712.155762,184.60936 712.953443,182.216318 714.548828,180.42627 C716.144214,178.636222 718.274889,177.741211 720.940918,177.741211 C723.606947,177.741211 725.737622,178.634106 727.333008,180.419922 C728.928393,182.205738 729.726074,184.588201 729.726074,187.567383 C729.726074,190.605809 728.926278,193.015779 727.32666,194.797363 C725.727043,196.578948 723.560398,197.469727 720.82666,197.469727 Z M714.999512,188.379883 C715.329591,193.111026 717.31004,195.476562 720.940918,195.476562 C724.571795,195.476562 726.552244,193.111026 726.882324,188.379883 L714.999512,188.379883 Z M726.856934,186.500977 C726.476072,181.989886 724.504087,179.734375 720.940918,179.734375 C719.205883,179.734375 717.830571,180.316238 716.814941,181.47998 C715.799311,182.643723 715.202638,184.317372 715.024902,186.500977 L726.856934,186.500977 Z M738.562012,199.03125 L738.562012,200.757812 C736.733878,199.513666 735.284511,197.82309 734.213867,195.686035 C733.143224,193.54898 732.60791,191.270194 732.60791,188.849609 C732.60791,186.437488 733.143224,184.162934 734.213867,182.025879 C735.284511,179.888824 736.733878,178.198248 738.562012,176.954102 L738.562012,178.680664 C737.317865,180.034838 736.431318,181.490552 735.902344,183.047852 C735.37337,184.605151 735.108887,186.539051 735.108887,188.849609 C735.108887,191.168631 735.37337,193.106763 735.902344,194.664062 C736.431318,196.221362 737.317865,197.677077 738.562012,199.03125 Z M741.92627,197 L741.92627,178.210938 L744.541504,178.210938 L753.999512,192.72168 L753.999512,178.210938 L756.284668,178.210938 L756.284668,197 L753.682129,197 L744.211426,182.489258 L744.211426,197 L741.92627,197 Z M759.648926,199.03125 C760.893073,197.677077 761.77962,196.221362 762.308594,194.664062 C762.837568,193.106763 763.102051,191.168631 763.102051,188.849609 C763.102051,186.539051 762.837568,184.605151 762.308594,183.047852 C761.77962,181.490552 760.893073,180.034838 759.648926,178.680664 L759.648926,176.954102 C761.47706,178.198248 762.926427,179.888824 763.99707,182.025879 C765.067714,184.162934 765.603027,186.437488 765.603027,188.849609 C765.603027,191.270194 765.067714,193.54898 763.99707,195.686035 C762.926427,197.82309 761.47706,199.513666 759.648926,200.757812 L759.648926,199.03125 Z" id="ϴ(N)" fill="#FFFFFF"></path>
        <path d="M848.713379,530.469727 C846.106595,530.469727 844.009774,529.566253 842.422852,527.759277 C840.83593,525.952302 840.04248,523.567723 840.04248,520.605469 C840.04248,517.60936 840.840161,515.216318 842.435547,513.42627 C844.030932,511.636222 846.161608,510.741211 848.827637,510.741211 C851.493666,510.741211 853.624341,511.634106 855.219727,513.419922 C856.815112,515.205738 857.612793,517.588201 857.612793,520.567383 C857.612793,523.605809 856.812996,526.015779 855.213379,527.797363 C853.613762,529.578948 851.447117,530.469727 848.713379,530.469727 Z M842.88623,521.379883 C843.21631,526.111026 845.196759,528.476562 848.827637,528.476562 C852.458514,528.476562 854.438963,526.111026 854.769043,521.379883 L842.88623,521.379883 Z M854.743652,519.500977 C854.362791,514.989886 852.390806,512.734375 848.827637,512.734375 C847.092602,512.734375 845.71729,513.316238 844.70166,514.47998 C843.68603,515.643723 843.089356,517.317372 842.911621,519.500977 L854.743652,519.500977 Z M866.44873,532.03125 L866.44873,533.757812 C864.620596,532.513666 863.171229,530.82309 862.100586,528.686035 C861.029943,526.54898 860.494629,524.270194 860.494629,521.849609 C860.494629,519.437488 861.029943,517.162934 862.100586,515.025879 C863.171229,512.888824 864.620596,511.198248 866.44873,509.954102 L866.44873,511.680664 C865.204584,513.034837 864.318036,514.490552 863.789062,516.047852 C863.260089,517.605151 862.995605,519.539051 862.995605,521.849609 C862.995605,524.168631 863.260089,526.106763 863.789062,527.664062 C864.318036,529.221362 865.204584,530.677077 866.44873,532.03125 Z M869.812988,530 L869.812988,511.210938 L872.428223,511.210938 L881.88623,525.72168 L881.88623,511.210938 L884.171387,511.210938 L884.171387,530 L881.568848,530 L872.098145,515.489258 L872.098145,530 L869.812988,530 Z M889.452637,530 L889.452637,527.499023 L891.953613,527.499023 L891.953613,530 L889.452637,530 Z M889.77002,524.985352 L889.452637,514.96875 L889.452637,511.210938 L891.953613,511.210938 L891.953613,514.96875 L891.648926,524.985352 L889.77002,524.985352 Z M895.762207,532.03125 C897.006354,530.677077 897.892901,529.221362 898.421875,527.664062 C898.950849,526.106763 899.215332,524.168631 899.215332,521.849609 C899.215332,519.539051 898.950849,517.605151 898.421875,516.047852 C897.892901,514.490552 897.006354,513.034837 895.762207,511.680664 L895.762207,509.954102 C897.590341,511.198248 899.039708,512.888824 900.110352,515.025879 C901.180995,517.162934 901.716309,519.437488 901.716309,521.849609 C901.716309,524.270194 901.180995,526.54898 900.110352,528.686035 C899.039708,530.82309 897.590341,532.513666 895.762207,533.757812 L895.762207,532.03125 Z" id="ϴ(N!)" fill="#FFFFFF"></path>
        <polyline id="Path-2-Copy-2" stroke="#FFFFFF" stroke-width="3" points="658 253 658 410.64724 815.64724 410.64724"></polyline>
        <polyline id="Path-2-Copy-6" stroke="#FFFFFF" stroke-width="3" points="790 586 790 743.64724 947.64724 743.64724"></polyline>
        <path d="M665.817124,401.671197 L789.246475,278.241846" id="Line-Copy-2" stroke="#37C3BE" stroke-width="3" stroke-linecap="round" fill-rule="nonzero"></path>
        <rect id="Rectangle-2-Copy-3" fill="#75C7FF" fill-rule="nonzero" opacity="0.102734375" x="893" y="221" width="220" height="220" rx="10"></rect>
        <path d="M930,401.429351 C944.711829,398.791366 962.283387,388.264784 982.714675,369.849606 C1003.14596,351.434427 1020.71752,314.484559 1035.42935,259" id="Line-Copy-2" stroke="#37C3BE" stroke-width="3" stroke-linecap="round" fill-rule="nonzero"></path>
        <path d="M269,735.429351 C281.395609,731.463425 293.300501,720.936843 304.714675,703.849606 C316.12885,686.762369 325.700409,648.145833 333.429351,588" id="Line-Copy-3" stroke="#37C3BE" stroke-width="3" stroke-linecap="round" fill-rule="nonzero"></path>
        <path d="M533,735.429351 C539.011854,731.289913 545.916745,720.763332 553.714675,703.849606 C561.512605,686.93588 568.084164,648.319345 573.429351,588" id="Line-Copy-4" stroke="#37C3BE" stroke-width="3" stroke-linecap="round" fill-rule="nonzero"></path>
        <path d="M797,736.429351 C800.236979,729.666667 804.742188,715.690216 810.515625,694.5 C816.289062,673.309784 820.926971,638.143117 824.429351,589" id="Line-Copy-5" stroke="#37C3BE" stroke-width="3" stroke-linecap="round" fill-rule="nonzero"></path>
        <path d="M946.396973,197.469727 C943.790189,197.469727 941.693367,196.566253 940.106445,194.759277 C938.519523,192.952302 937.726074,190.567723 937.726074,187.605469 C937.726074,184.60936 938.523755,182.216318 940.119141,180.42627 C941.714526,178.636222 943.845201,177.741211 946.51123,177.741211 C949.177259,177.741211 951.307935,178.634106 952.90332,180.419922 C954.498706,182.205738 955.296387,184.588201 955.296387,187.567383 C955.296387,190.605809 954.49659,193.015779 952.896973,194.797363 C951.297355,196.578948 949.13071,197.469727 946.396973,197.469727 Z M940.569824,188.379883 C940.899904,193.111026 942.880353,195.476562 946.51123,195.476562 C950.142108,195.476562 952.122557,193.111026 952.452637,188.379883 L940.569824,188.379883 Z M952.427246,186.500977 C952.046385,181.989886 950.074399,179.734375 946.51123,179.734375 C944.776196,179.734375 943.400884,180.316238 942.385254,181.47998 C941.369624,182.643723 940.77295,184.317372 940.595215,186.500977 L952.427246,186.500977 Z M964.132324,199.03125 L964.132324,200.757812 C962.30419,199.513666 960.854823,197.82309 959.78418,195.686035 C958.713536,193.54898 958.178223,191.270194 958.178223,188.849609 C958.178223,186.437488 958.713536,184.162934 959.78418,182.025879 C960.854823,179.888824 962.30419,178.198248 964.132324,176.954102 L964.132324,178.680664 C962.888177,180.034838 962.00163,181.490552 961.472656,183.047852 C960.943682,184.605151 960.679199,186.539051 960.679199,188.849609 C960.679199,191.168631 960.943682,193.106763 961.472656,194.664062 C962.00163,196.221362 962.888177,197.677077 964.132324,199.03125 Z M967.496582,197 L967.496582,178.210938 L970.111816,178.210938 L979.569824,192.72168 L979.569824,178.210938 L981.85498,178.210938 L981.85498,197 L979.252441,197 L969.781738,182.489258 L969.781738,197 L967.496582,197 Z M995.007324,197 L995.007324,176.954102 L997.508301,176.954102 L997.508301,197 L995.007324,197 Z M1007.91846,197.317383 C1005.94644,197.317383 1004.37224,196.663581 1003.1958,195.355957 C1002.01936,194.048333 1001.43115,192.298514 1001.43115,190.106445 C1001.43115,187.888986 1002.02148,186.134935 1003.20215,184.844238 C1004.38282,183.553542 1005.98453,182.908203 1008.00732,182.908203 C1010.03012,182.908203 1011.63183,183.553542 1012.8125,184.844238 C1013.99317,186.134935 1014.5835,187.880523 1014.5835,190.081055 C1014.5835,192.332368 1013.99105,194.101231 1012.80615,195.387695 C1011.62125,196.67416 1009.99204,197.317383 1007.91846,197.317383 Z M1007.95654,195.438477 C1010.60564,195.438477 1011.93018,193.652687 1011.93018,190.081055 C1011.93018,186.55174 1010.62257,184.787109 1008.00732,184.787109 C1005.40054,184.787109 1004.09717,186.560204 1004.09717,190.106445 C1004.09717,193.661151 1005.38361,195.438477 1007.95654,195.438477 Z M1018.54443,201.583008 L1018.83643,199.412109 C1020.2837,200.09766 1021.70979,200.44043 1023.11475,200.44043 C1025.93312,200.44043 1027.34229,198.94663 1027.34229,195.958984 L1027.34229,193.788086 C1026.41975,195.717783 1024.9048,196.682617 1022.79736,196.682617 C1021.14696,196.682617 1019.83513,196.081712 1018.86182,194.879883 C1017.8885,193.678054 1017.40186,192.057302 1017.40186,190.017578 C1017.40186,187.918609 1017.95621,186.208991 1019.06494,184.888672 C1020.17367,183.568353 1021.60823,182.908203 1023.36865,182.908203 C1024.90902,182.908203 1026.23356,183.534499 1027.34229,184.787109 L1027.34229,183.212891 L1029.85596,183.212891 L1029.85596,193.242188 C1029.85596,195.400401 1029.74382,196.997879 1029.51953,198.034668 C1029.29525,199.071457 1028.87419,199.919919 1028.25635,200.580078 C1027.16455,201.739589 1025.46762,202.319336 1023.16553,202.319336 C1021.55745,202.319336 1020.0171,202.073896 1018.54443,201.583008 Z M1027.34229,192.226562 L1027.34229,186.500977 C1026.24202,185.358393 1025.04444,184.787109 1023.74951,184.787109 C1022.59846,184.787109 1021.69711,185.248368 1021.04541,186.170898 C1020.39371,187.093429 1020.06787,188.358716 1020.06787,189.966797 C1020.06787,192.988296 1021.13003,194.499023 1023.25439,194.499023 C1024.70167,194.499023 1026.06428,193.741544 1027.34229,192.226562 Z M1042.85596,197 L1042.85596,178.210938 L1045.47119,178.210938 L1054.9292,192.72168 L1054.9292,178.210938 L1057.21436,178.210938 L1057.21436,197 L1054.61182,197 L1045.14111,182.489258 L1045.14111,197 L1042.85596,197 Z M1060.57861,199.03125 C1061.82276,197.677077 1062.70931,196.221362 1063.23828,194.664062 C1063.76726,193.106763 1064.03174,191.168631 1064.03174,188.849609 C1064.03174,186.539051 1063.76726,184.605151 1063.23828,183.047852 C1062.70931,181.490552 1061.82276,180.034838 1060.57861,178.680664 L1060.57861,176.954102 C1062.40675,178.198248 1063.85611,179.888824 1064.92676,182.025879 C1065.9974,184.162934 1066.53271,186.437488 1066.53271,188.849609 C1066.53271,191.270194 1065.9974,193.54898 1064.92676,195.686035 C1063.85611,197.82309 1062.40675,199.513666 1060.57861,200.757812 L1060.57861,199.03125 Z" id="ϴ(N-log-N)" fill="#FFFFFF"></path>
        <polyline id="Path-2-Copy-3" stroke="#FFFFFF" stroke-width="3" points="922 253 922 410.64724 1079.64724 410.64724"></polyline>
        <path d="M482.664062,92.3076172 C479.529281,92.3076172 477.043954,91.3212989 475.208008,89.3486328 C473.372061,87.3759667 472.454102,84.6513846 472.454102,81.1748047 C472.454102,77.8740069 473.413565,75.2251076 475.33252,73.2280273 C477.251474,71.230947 479.763656,70.2324219 482.869141,70.2324219 C485.378919,70.2324219 487.502921,70.8134708 489.241211,71.9755859 L487.996094,74.9785156 C486.326164,73.9531199 484.646493,73.4404297 482.957031,73.4404297 C480.984365,73.4404297 479.424322,74.1508718 478.276855,75.5717773 C477.129389,76.9926829 476.555664,78.8994021 476.555664,81.2919922 C476.555664,83.7724733 477.109858,85.6913995 478.218262,87.0488281 C479.326666,88.4062568 480.90624,89.0849609 482.957031,89.0849609 C484.753915,89.0849609 486.536124,88.6357467 488.303711,87.7373047 L488.831055,90.8427734 C487.190421,91.8193408 485.134778,92.3076172 482.664062,92.3076172 Z M499.011719,89.3925781 C500.310553,89.3925781 501.287106,88.91895 501.941406,87.9716797 C502.595706,87.0244093 502.922852,85.667001 502.922852,83.8994141 C502.922852,82.1122958 502.595706,80.7500047 501.941406,79.8125 C501.287106,78.8749953 500.300788,78.40625 498.982422,78.40625 C497.683587,78.40625 496.704593,78.8774367 496.04541,79.8198242 C495.386227,80.7622117 495.056641,82.1269442 495.056641,83.9140625 C495.056641,85.6718838 495.388669,87.0244093 496.052734,87.9716797 C496.7168,88.91895 497.703118,89.3925781 499.011719,89.3925781 Z M498.90918,92.3076172 C496.526355,92.3076172 494.651374,91.5361405 493.28418,89.9931641 C491.916985,88.4501876 491.233398,86.4189579 491.233398,83.8994141 C491.233398,81.3017448 491.916985,79.2534255 493.28418,77.7543945 C494.651374,76.2553636 496.580066,75.5058594 499.070312,75.5058594 C501.472668,75.5058594 503.354974,76.2700119 504.717285,77.7983398 C506.079597,79.3266678 506.760742,81.3603389 506.760742,83.8994141 C506.760742,86.4677863 506.072273,88.5112229 504.695312,90.0297852 C503.318352,91.5483474 501.389661,92.3076172 498.90918,92.3076172 Z M509.895508,92 L509.895508,75.9013672 L513.000977,75.9013672 L513.44043,77.9521484 C513.635743,77.7080066 513.82373,77.4907236 514.004395,77.300293 C514.185059,77.1098623 514.43408,76.8950207 514.751465,76.6557617 C515.068849,76.4165027 515.40576,76.2187508 515.762207,76.0625 C516.118654,75.9062492 516.558103,75.7744146 517.080566,75.6669922 C517.60303,75.5595698 518.162106,75.5058594 518.757812,75.5058594 C520.037116,75.5058594 521.060055,75.7646458 521.82666,76.2822266 C522.593266,76.7998073 523.132811,77.40527 523.445312,78.0986328 C524.021487,77.2685505 524.76855,76.6289085 525.686523,76.1796875 C526.604497,75.7304665 527.624994,75.5058594 528.748047,75.5058594 C530.593759,75.5058594 531.948726,76.0283151 532.812988,77.0732422 C533.67725,78.1181693 534.109375,79.6660054 534.109375,81.7167969 L534.109375,92 L530.256836,92 L530.256836,82.859375 C530.256836,81.2871015 530.083498,80.151859 529.736816,79.4536133 C529.390135,78.7553676 528.728521,78.40625 527.751953,78.40625 C526.257805,78.40625 525.183597,79.0800714 524.529297,80.4277344 C524.255858,81.0234405 524.070313,81.7412067 523.972656,82.5810547 L523.972656,92 L520.134766,92 L520.134766,82.6835938 C520.134766,81.2480397 519.944338,80.1787145 519.563477,79.4755859 C519.182615,78.7724574 518.494146,78.4208984 517.498047,78.4208984 C516.687496,78.4208984 515.989261,78.6259745 515.40332,79.0361328 C514.81738,79.4462911 514.373048,79.9833951 514.070312,80.6474609 C513.845702,81.633794 513.733398,82.8154228 513.733398,84.1923828 L513.733398,92 L509.895508,92 Z M537.888672,92 L537.888672,75.9013672 L540.994141,75.9013672 L541.433594,77.9521484 C541.628907,77.7080066 541.816894,77.4907236 541.997559,77.300293 C542.178224,77.1098623 542.427245,76.8950207 542.744629,76.6557617 C543.062013,76.4165027 543.398924,76.2187508 543.755371,76.0625 C544.111818,75.9062492 544.551267,75.7744146 545.07373,75.6669922 C545.596194,75.5595698 546.15527,75.5058594 546.750977,75.5058594 C548.03028,75.5058594 549.053219,75.7646458 549.819824,76.2822266 C550.58643,76.7998073 551.125975,77.40527 551.438477,78.0986328 C552.014651,77.2685505 552.761714,76.6289085 553.679688,76.1796875 C554.597661,75.7304665 555.618158,75.5058594 556.741211,75.5058594 C558.586923,75.5058594 559.94189,76.0283151 560.806152,77.0732422 C561.670414,78.1181693 562.102539,79.6660054 562.102539,81.7167969 L562.102539,92 L558.25,92 L558.25,82.859375 C558.25,81.2871015 558.076662,80.151859 557.72998,79.4536133 C557.383299,78.7553676 556.721685,78.40625 555.745117,78.40625 C554.250969,78.40625 553.176761,79.0800714 552.522461,80.4277344 C552.249022,81.0234405 552.063477,81.7412067 551.96582,82.5810547 L551.96582,92 L548.12793,92 L548.12793,82.6835938 C548.12793,81.2480397 547.937502,80.1787145 547.556641,79.4755859 C547.175779,78.7724574 546.48731,78.4208984 545.491211,78.4208984 C544.68066,78.4208984 543.982425,78.6259745 543.396484,79.0361328 C542.810544,79.4462911 542.366212,79.9833951 542.063477,80.6474609 C541.838866,81.633794 541.726562,82.8154228 541.726562,84.1923828 L541.726562,92 L537.888672,92 Z M572.898438,89.3925781 C574.197272,89.3925781 575.173825,88.91895 575.828125,87.9716797 C576.482425,87.0244093 576.80957,85.667001 576.80957,83.8994141 C576.80957,82.1122958 576.482425,80.7500047 575.828125,79.8125 C575.173825,78.8749953 574.187507,78.40625 572.869141,78.40625 C571.570306,78.40625 570.591312,78.8774367 569.932129,79.8198242 C569.272946,80.7622117 568.943359,82.1269442 568.943359,83.9140625 C568.943359,85.6718838 569.275387,87.0244093 569.939453,87.9716797 C570.603519,88.91895 571.589837,89.3925781 572.898438,89.3925781 Z M572.795898,92.3076172 C570.413074,92.3076172 568.538093,91.5361405 567.170898,89.9931641 C565.803704,88.4501876 565.120117,86.4189579 565.120117,83.8994141 C565.120117,81.3017448 565.803704,79.2534255 567.170898,77.7543945 C568.538093,76.2553636 570.466784,75.5058594 572.957031,75.5058594 C575.359387,75.5058594 577.241692,76.2700119 578.604004,77.7983398 C579.966315,79.3266678 580.647461,81.3603389 580.647461,83.8994141 C580.647461,86.4677863 579.958991,88.5112229 578.582031,90.0297852 C577.205071,91.5483474 575.27638,92.3076172 572.795898,92.3076172 Z M583.782227,92 L583.782227,75.9013672 L586.873047,75.9013672 L587.297852,77.9375 C588.938485,76.3163981 590.759756,75.5058594 592.761719,75.5058594 C594.636728,75.5058594 596.040523,76.0454048 596.973145,77.1245117 C597.905766,78.2036187 598.37207,79.7685444 598.37207,81.8193359 L598.37207,92 L594.519531,92 L594.519531,82.2880859 C594.509766,80.9892513 594.299807,80.0175813 593.889648,79.3730469 C593.47949,78.7285124 592.742193,78.40625 591.677734,78.40625 C590.847652,78.40625 590.088382,78.6186502 589.399902,79.043457 C588.711422,79.4682638 588.210939,80.0029265 587.898438,80.6474609 C587.71289,81.4091835 587.620117,82.5810468 587.620117,84.1630859 L587.620117,92 L583.782227,92 Z M610.339844,92 L610.339844,70.4814453 L618.293945,70.4814453 C619.377935,70.4814453 620.317867,70.5302729 621.11377,70.6279297 C621.909672,70.7255864 622.6665,70.9038073 623.384277,71.1625977 C624.102054,71.421388 624.683103,71.7705056 625.127441,72.2099609 C625.57178,72.6494163 625.923339,73.223141 626.182129,73.9311523 C626.440919,74.6391637 626.570312,75.4765577 626.570312,76.4433594 C626.570312,79.2949361 625.27638,81.1699174 622.688477,82.0683594 C623.215823,82.6640655 623.870113,83.7675701 624.651367,85.3789062 L627.844727,92 L623.508789,92 L621.003906,86.3896484 C620.056636,84.3779196 619.470704,83.1865253 619.246094,82.8154297 C619.080077,82.805664 618.528325,82.8007812 617.59082,82.8007812 L614.265625,82.7714844 L614.265625,92 L610.339844,92 Z M618.645508,79.9296875 C620.168953,79.9296875 621.262692,79.6586941 621.926758,79.1166992 C622.590824,78.5747043 622.922852,77.703131 622.922852,76.5019531 C622.922852,75.4472604 622.585941,74.6709009 621.912109,74.1728516 C621.238278,73.6748022 620.208015,73.4257812 618.821289,73.4257812 L614.265625,73.4257812 L614.265625,79.9150391 C614.41211,79.9150391 615.139642,79.9174804 616.448242,79.9223633 C617.756842,79.9272461 618.489257,79.9296875 618.645508,79.9296875 Z M637.058594,92.3076172 C634.96874,92.3076172 633.286627,91.7851615 632.012207,90.7402344 C630.737787,89.6953073 630.100586,88.1621195 630.100586,86.140625 L630.100586,75.9013672 L633.953125,75.9013672 L633.953125,85.9941406 C633.953125,87.1953185 634.204587,88.0644504 634.70752,88.6015625 C635.210452,89.1386746 636.008784,89.4072266 637.102539,89.4072266 C638.176763,89.4072266 638.960447,89.1411159 639.453613,88.6088867 C639.94678,88.0766575 640.193359,87.2050842 640.193359,85.9941406 L640.193359,75.9013672 L644.03125,75.9013672 L644.03125,86.140625 C644.03125,88.1523538 643.391608,89.6831002 642.112305,90.7329102 C640.833001,91.7827201 639.148448,92.3076172 637.058594,92.3076172 Z M647.532227,92 L647.532227,75.9013672 L650.623047,75.9013672 L651.047852,77.9375 C652.688485,76.3163981 654.509756,75.5058594 656.511719,75.5058594 C658.386728,75.5058594 659.790523,76.0454048 660.723145,77.1245117 C661.655766,78.2036187 662.12207,79.7685444 662.12207,81.8193359 L662.12207,92 L658.269531,92 L658.269531,82.2880859 C658.259766,80.9892513 658.049807,80.0175813 657.639648,79.3730469 C657.22949,78.7285124 656.492193,78.40625 655.427734,78.40625 C654.597652,78.40625 653.838382,78.6186502 653.149902,79.043457 C652.461422,79.4682638 651.960939,80.0029265 651.648438,80.6474609 C651.46289,81.4091835 651.370117,82.5810468 651.370117,84.1630859 L651.370117,92 L647.532227,92 Z M672.332031,92.2197266 C671.238276,92.2197266 670.32764,92.0903333 669.600098,91.831543 C668.872555,91.5727526 668.303713,91.1650418 667.893555,90.6083984 C667.483396,90.051755 667.192872,89.3950233 667.021973,88.6381836 C666.851073,87.8813439 666.765625,86.9462946 666.765625,85.8330078 L666.765625,78.2304688 L664.128906,78.2304688 L664.275391,76.1503906 L667.029297,75.9013672 L668.259766,71.5361328 L670.603516,71.5214844 L670.603516,75.9013672 L674.602539,75.9013672 L674.602539,78.2304688 L670.603516,78.2304688 L670.603516,85.90625 C670.603516,87.1269592 670.779295,87.9960912 671.130859,88.5136719 C671.482424,89.0312526 672.131831,89.2900391 673.079102,89.2900391 C673.635745,89.2900391 674.231442,89.2412114 674.866211,89.1435547 L674.96875,91.8974609 C674.949219,91.8974609 674.829591,91.9194334 674.609863,91.9633789 C674.390136,92.0073244 674.180177,92.0463865 673.97998,92.0805664 C673.779784,92.1147463 673.523439,92.1464842 673.210938,92.1757812 C672.898436,92.2050783 672.60547,92.2197266 672.332031,92.2197266 Z M677.751953,92 L677.751953,75.9013672 L681.589844,75.9013672 L681.589844,92 L677.751953,92 Z M677.751953,73.5576172 L677.751953,70.2763672 L681.604492,70.2763672 L681.604492,73.5576172 L677.751953,73.5576172 Z M685.588867,92 L685.588867,75.9013672 L688.694336,75.9013672 L689.133789,77.9521484 C689.329103,77.7080066 689.517089,77.4907236 689.697754,77.300293 C689.878419,77.1098623 690.12744,76.8950207 690.444824,76.6557617 C690.762209,76.4165027 691.099119,76.2187508 691.455566,76.0625 C691.812014,75.9062492 692.251462,75.7744146 692.773926,75.6669922 C693.296389,75.5595698 693.855466,75.5058594 694.451172,75.5058594 C695.730475,75.5058594 696.753414,75.7646458 697.52002,76.2822266 C698.286625,76.7998073 698.82617,77.40527 699.138672,78.0986328 C699.714847,77.2685505 700.461909,76.6289085 701.379883,76.1796875 C702.297856,75.7304665 703.318354,75.5058594 704.441406,75.5058594 C706.287119,75.5058594 707.642086,76.0283151 708.506348,77.0732422 C709.37061,78.1181693 709.802734,79.6660054 709.802734,81.7167969 L709.802734,92 L705.950195,92 L705.950195,82.859375 C705.950195,81.2871015 705.776857,80.151859 705.430176,79.4536133 C705.083494,78.7553676 704.42188,78.40625 703.445312,78.40625 C701.951164,78.40625 700.876956,79.0800714 700.222656,80.4277344 C699.949217,81.0234405 699.763672,81.7412067 699.666016,82.5810547 L699.666016,92 L695.828125,92 L695.828125,82.6835938 C695.828125,81.2480397 695.637697,80.1787145 695.256836,79.4755859 C694.875975,78.7724574 694.187505,78.4208984 693.191406,78.4208984 C692.380855,78.4208984 691.68262,78.6259745 691.09668,79.0361328 C690.510739,79.4462911 690.066408,79.9833951 689.763672,80.6474609 C689.539061,81.633794 689.426758,82.8154228 689.426758,84.1923828 L689.426758,92 L685.588867,92 Z M721.023438,92.3076172 C718.435534,92.3076172 716.421394,91.5629957 714.980957,90.0737305 C713.54052,88.5844652 712.820312,86.5263803 712.820312,83.8994141 C712.820312,81.3408075 713.499017,79.3046951 714.856445,77.7910156 C716.213874,76.2773362 718.064441,75.515625 720.408203,75.5058594 C722.625011,75.5058594 724.346185,76.1992118 725.571777,77.5859375 C726.797369,78.9726632 727.410156,80.8134651 727.410156,83.1083984 C727.410156,83.2744149 727.407715,83.5429669 727.402832,83.9140625 C727.397949,84.2851581 727.395508,84.5585929 727.395508,84.734375 L716.6875,84.734375 C716.726563,86.2382888 717.139156,87.4028279 717.925293,88.2280273 C718.71143,89.0532268 719.792962,89.4658203 721.169922,89.4658203 C722.927743,89.4658203 724.617179,89.0068405 726.238281,88.0888672 L726.780273,90.8134766 C725.168937,91.8095753 723.250011,92.3076172 721.023438,92.3076172 Z M716.760742,82.3173828 L723.791992,82.3173828 C723.791992,81.0087825 723.494144,80.0029332 722.898438,79.2998047 C722.302731,78.5966762 721.477544,78.2451172 720.422852,78.2451172 C719.436519,78.2451172 718.604007,78.5869106 717.925293,79.2705078 C717.246579,79.954105 716.858399,80.9697198 716.760742,82.3173828 Z M735.671875,92.2929688 C733.298816,92.2929688 731.399421,91.8876994 729.973633,91.0771484 L730.369141,88.1914062 C731.013675,88.5429705 731.833979,88.8579088 732.830078,89.1362305 C733.826177,89.4145522 734.734371,89.5537109 735.554688,89.5537109 C736.404301,89.5537109 737.065916,89.3950211 737.539551,89.0776367 C738.013186,88.7602523 738.254883,88.2939484 738.264648,87.6787109 C738.264648,87.1220675 738.042483,86.6826188 737.598145,86.3603516 C737.153806,86.0380843 736.306647,85.6376977 735.056641,85.1591797 C734.626951,85.0029289 734.348633,84.9003909 734.22168,84.8515625 C732.737297,84.2753877 731.667972,83.6333043 731.013672,82.925293 C730.359372,82.2172816 730.032227,81.2578186 730.032227,80.046875 C730.032227,78.5820239 730.562006,77.4589883 731.621582,76.6777344 C732.681158,75.8964805 734.158194,75.5058594 736.052734,75.5058594 C738.103526,75.5058594 739.905266,75.8915977 741.458008,76.6630859 L740.505859,79.3144531 C738.972649,78.6015589 737.512702,78.2451172 736.125977,78.2451172 C735.354488,78.2451172 734.751467,78.3745104 734.316895,78.6333008 C733.882322,78.8920911 733.665039,79.2851536 733.665039,79.8125 C733.665039,80.3105494 733.874998,80.6987291 734.294922,80.9770508 C734.714846,81.2553725 735.53515,81.6191384 736.755859,82.0683594 C736.794922,82.078125 736.921874,82.1220699 737.136719,82.2001953 C737.351564,82.2783207 737.517578,82.3417966 737.634766,82.390625 C739.109382,82.9277371 740.193356,83.5698205 740.886719,84.3168945 C741.580082,85.0639686 741.926758,86.0380799 741.926758,87.2392578 C741.916992,88.850594 741.370123,90.0956987 740.286133,90.9746094 C739.202143,91.85352 737.664072,92.2929688 735.671875,92.2929688 Z" id="Common-Runtimes" fill="#FFFFFF"></path>
    </g>
</svg>